<svg id="Layer_1" data-name="Layer 1" xmlns="http://www.w3.org/2000/svg" viewBox="0 0 1920 1080"><defs><style>.cls-1{fill:none;}.cls-1,.cls-2,.cls-3{stroke:#000;stroke-miterlimit:10;}.cls-2{fill:#fff;}</style></defs><title>room1.2</title><line class="cls-1" x1="0.5" y1="1079.5" x2="339.5" y2="739.5"/><polyline class="cls-1" points="339.5 0.5 339.5 740 1921 740.5"/><path class="cls-2" d="M1037.87,575.46c28.72,15.1,53.71,58.51,49.91,90.73-2.63,22.23-14.34,42.58-17.19,64.78a84.33,84.33,0,0,0,26,71.52c19.37,17.87,37.86,18.61,67,17.62,31.19-1.06,63.91-32.7,60-63.66-3.21-25.3-24.94-45.7-26.65-71.15-2.81-41.86,47.11-68,59.28-108.16-18.76,15-194.67,12.39-218.34-1.9C1050,561.39,1246.41,564,1256,577.38"/><path d="M1089.25,578.85c-13.63-32.53-59.65-68.7-99.49-49.71-12.65,6-34.3,19.76-42.26,31.4-11.21,16.4-14.32,35.41-30.85,48.9-12.49,10.19-31.42,20-46.94,22-5.76.72-13.38-1.79-18.83.05-8,2.7-12.27,11.35-20.67,13.52-34.46,8.93-37.63-64,1.22-71.22,25.44-4.72,35-5.07,55.23-23.76,15.17-14,27.64-35.18,47.66-41.14,10.41-3.11,21.8-.44,31.95-2.81s18.17-8.68,28.66-10.12c9.72-1.33,42.5,10.65,30.48-12-8-15.08-41-20.09-55.92-20.35-5.53-.1-15.36,1.82-20-1-6.93-4.16-6.5-15.12-16.14-19.44-17.79-8-33.8,9.3-50.46,5-30-7.67-36.65-73.67-13.37-91.06,38.42-28.71,61.13,4.07,83.24,29.85,14.87,17.34,38.92,22,57.54,35.49,13.81,10,28.66,28.4,39.64,41.94,12.82,15.82,9.61,39.45,23,53.41,21.69-25.57,1.85-65.71-15.56-86.42-15-17.83-29.7-13.82-34-40.85-2.86-17.73,3.87-31.84,5.67-48.85,2.07-19.69,13.91-111.51,55.72-74.86,21,18.41,13.07,54.33,8.58,77.92-4.1,21.48-3.37,35.33,7.62,54.38,12.2,21.13,19.35,40.41,7,63.45-4.58,8.56-28.22,41.15-1.58,35.31,28.92-6.34,28.17-48.57,29.33-69.29,1.14-20.38,14.25-36.58,15-57.49,1.12-32.46-25.66-55.5-25.25-85.48.26-19.42,22.16-41.38,35.66-53.88,21.54-20,63.93-11.67,69.63,20.08,3.83,21.32-17.09,46-17.17,69.55,0,10.54,2.21,20.62,1.88,31.31-.88,29.6-16.7,45-28.49,70.63-10.68,23.24-8.62,48.17-30.86,64.09-7.91,5.66-43.86,29.62-12.86,32.28,16,1.37,38.38-23.41,50-33.41,12-10.29,19.93-25,32.33-34.46,27.52-21.12,43.31,1.64,71.25-3.37,27.68-5,29.44-34.18,39-54.65,36.21-77.35,133,17.5,78.92,67-20.56,18.83-45.7,9.16-69.57,11.28-25.57,2.28-46.2,11.44-72.34,7.54-28-4.19-40.64-4.42-64.32,11.87-6.87,4.73-11.47,10.59-17.1,16.25-6.52,6.55-21.06,15.05-24.26,23.56-8.91,23.63,15.35,23,30,16.4,27.36-12.38,53.4-8.79,81-17.3,26.59-8.2,73.22-38.54,101-24.41,27.64,14.05,5.75,42.23-.28,60.89-6.79,21,4.22,36.52,2.74,58-1.27,18.53-22,51.84-46.32,45.55-43.2-11.18,30.91-95.45-.26-118.84-16.7-12.53-29.37,13.3-44.19,16.63-16.3,3.66-37.6-3.94-54.93-3.08-23.73,1.17-24.79,20.76-46.85,21.43-18.25.55-48.12.74-65.16-.28-12-.71-18.16-.74-32.27-1.52C1091.58,584.89,1090.79,582.54,1089.25,578.85Z"/><path class="cls-3" d="M1511.5,83.5V501.9H1826V83.5Zm294.84,396.87H1531.16V104.09h275.18Z"/><polygon points="1530.69 238.41 1810 238.41 1809.53 219.69 1530.22 219.69 1530.69 238.41"/><polygon points="1660.56 90.97 1660.56 493.94 1679.28 493.26 1679.28 90.29 1660.56 90.97"/><polygon points="1530.69 370.39 1810 370.39 1809.53 351.67 1530.22 351.67 1530.69 370.39"/><rect class="cls-1" x="506.5" y="179.5" width="216" height="132"/><rect class="cls-1" x="518.5" y="191.5" width="192" height="108"/></svg>